<svg width="70" height="76" viewBox="0 0 70 76" fill="none" xmlns="http://www.w3.org/2000/svg">
<path d="M0 10C0 4.47715 4.47715 0 10 0H60C65.5229 0 70 4.47715 70 10V66C70 71.5229 65.5229 76 60 76H10C4.47715 76 0 71.5229 0 66V10Z" fill="#E74040"/>
<g clip-path="url(#clip0_2_3668)">
<g clip-path="url(#clip1_2_3668)">
<g clip-path="url(#clip2_2_3668)">
<path d="M29.6714 38.3346C30.0654 38.253 30.4771 38.0743 30.8654 37.794C31.982 36.9863 32.4776 35.66 31.9712 34.8303C31.4206 33.9277 29.9144 33.9883 28.757 35.0156C27.6502 35.9712 27.4141 36.9697 27.4141 38.0191C27.4141 38.7606 27.6512 40.0846 29.1 41.2345C29.7841 40.7059 30.5995 40.2711 31.5252 39.9567L31.5375 39.9522C30.8262 39.6558 29.8991 39.0708 29.6714 38.3346ZM29.4928 35.7824C29.4928 35.4724 29.7399 35.2231 30.0445 35.2231C30.3489 35.2231 30.5962 35.4735 30.5962 35.7836C30.5962 36.0937 30.3489 36.343 30.0445 36.343C29.7399 36.343 29.4928 36.0925 29.4928 35.7824Z" fill="white"/>
</g>
</g>
<g clip-path="url(#clip3_2_3668)">
<g clip-path="url(#clip4_2_3668)">
<path d="M42.6074 38.0203C42.6041 36.9698 42.3691 35.9713 41.2613 35.0157C40.1048 33.9895 38.5976 33.9266 38.047 34.8304C37.5416 35.6601 38.0359 36.9864 39.1525 37.7941C39.541 38.0744 39.9526 38.2531 40.3465 38.3347C40.2097 38.7772 39.7937 39.2274 39.1593 39.607C38.2869 40.1276 37.8157 40.192 32.2341 42.0455C30.1686 42.7473 28.9395 44.1419 28.9395 45.7761C28.9395 46.9402 29.5341 47.8384 30.3605 48.4961C30.8803 47.9609 31.5292 47.4964 32.2872 47.1245C31.4144 46.6832 31.1451 46.3488 31.1451 45.7761C31.1451 44.8309 33.0344 44.2905 33.906 44.003V46.3952L36.1128 45.4109V44.0041C36.9858 44.2932 38.8702 44.8329 38.8702 45.7761C38.8702 47.3454 34.3767 48.2708 32.4649 49.5895C31.537 50.2328 31.038 51.0505 31.038 52.0115C31.038 52.5632 31.1021 53.2474 32.0709 53.9271C32.3456 54.1465 32.7272 53.826 32.5488 53.5176C31.9087 52.2366 32.5884 51.5966 33.9081 51.0427V52.8942C33.9081 53.5033 34.4025 53.9976 35.0115 53.9976C35.6206 53.9976 36.115 53.5033 36.115 52.8942V51.0438C37.3827 51.5756 38.1806 52.327 37.471 53.5176C37.2952 53.82 37.6697 54.1492 37.9477 53.9271C38.8856 53.2164 38.9596 52.6073 38.9596 52.0259C38.9596 51.1311 38.4697 50.2627 37.5406 49.5973C39.4186 48.9187 41.0803 47.7766 41.0803 45.7783C41.0803 44.398 40.2032 43.1886 38.6871 42.4229C39.3953 42.168 39.7517 41.997 40.2251 41.7145C42.2985 40.4753 42.6074 38.8677 42.6074 38.0203ZM39.9748 36.3431C39.6701 36.3431 39.4231 36.0926 39.4231 35.7825C39.4231 35.4725 39.6701 35.222 39.9748 35.222C40.2792 35.222 40.5265 35.4725 40.5265 35.7825C40.5265 36.0926 40.2792 36.3431 39.9748 36.3431Z" fill="white"/>
</g>
</g>
<g clip-path="url(#clip5_2_3668)">
<g clip-path="url(#clip6_2_3668)">
<path d="M50.4476 24.209H42.8908C41.4084 24.209 40.296 24.8643 39.339 25.8213C38.2993 26.861 37.7587 29.1722 36.1032 29.1722V26.1076C36.7601 25.7253 37.2066 25.0217 37.2066 24.2068C37.2066 22.988 36.2186 22 34.9998 22C33.7809 22 32.793 22.988 32.793 24.2068C32.793 25.0216 33.2394 25.7253 33.8964 26.1076V39.2579C34.5774 39.0406 35.3248 38.8012 36.1032 38.5513V33.0242C36.5819 32.784 36.9682 32.3957 37.2051 31.9151C37.5889 32.571 38.3185 33.0363 39.1318 33.0363C39.9567 33.0363 40.6673 32.5783 41.0459 31.908C42.3386 33.2007 44.7413 33.2256 46.0339 31.933L44.1588 30.0579L45.019 30.4142C46.708 31.1138 48.6444 30.3117 49.3441 28.6227L46.6803 27.5193C49.2609 27.5192 50.4476 25.8999 50.4476 24.209Z" fill="white"/>
</g>
</g>
<g clip-path="url(#clip7_2_3668)">
<g clip-path="url(#clip8_2_3668)">
<path d="M30.6613 25.8213C29.7043 24.8643 28.5919 24.209 27.1095 24.209H19.5527C19.5527 25.8998 20.7394 27.5192 23.32 27.5192L20.6561 28.6226C21.3558 30.3117 23.2923 31.1137 24.9813 30.4142L25.8415 30.0578L23.9664 31.9329C25.259 33.2257 27.6617 33.2008 28.9544 31.908C29.333 32.5783 30.0436 33.0363 30.8685 33.0363C30.8766 33.0363 30.8848 33.0362 30.8929 33.0361C31.9711 33.0239 32.7952 32.05 32.7952 30.9718V28.7519C31.9255 28.0383 31.4274 26.5874 30.6613 25.8213Z" fill="white"/>
</g>
</g>
</g>
<defs>
<clipPath id="clip0_2_3668">
<rect width="32" height="32" fill="white" transform="translate(19 22)"/>
</clipPath>
<clipPath id="clip1_2_3668">
<rect width="4.75568" height="7.03818" fill="white" transform="translate(27.4141 34.1963)"/>
</clipPath>
<clipPath id="clip2_2_3668">
<rect width="4.75568" height="7.03818" fill="white" transform="translate(27.4141 34.1963)"/>
</clipPath>
<clipPath id="clip3_2_3668">
<rect width="13.668" height="19.8036" fill="white" transform="translate(28.9395 34.1963)"/>
</clipPath>
<clipPath id="clip4_2_3668">
<rect width="13.668" height="19.8036" fill="white" transform="translate(28.9395 34.1963)"/>
</clipPath>
<clipPath id="clip5_2_3668">
<rect width="17.6546" height="17.2579" fill="white" transform="translate(32.793 22)"/>
</clipPath>
<clipPath id="clip6_2_3668">
<rect width="17.6546" height="17.2579" fill="white" transform="translate(32.793 22)"/>
</clipPath>
<clipPath id="clip7_2_3668">
<rect width="13.2425" height="8.8273" fill="white" transform="translate(19.5527 24.209)"/>
</clipPath>
<clipPath id="clip8_2_3668">
<rect width="13.2425" height="8.8273" fill="white" transform="translate(19.5527 24.209)"/>
</clipPath>
</defs>
</svg>
